<mxfile host="app.diagrams.net" modified="2023-11-10T16:01:10.835Z" agent="Mozilla/5.0 (Windows NT 10.0; Win64; x64) AppleWebKit/537.36 (KHTML, like Gecko) Chrome/119.0.0.0 Safari/537.36" version="22.1.0" etag="W-4bqbtUVNVkl7mYF545" type="github">
  <diagram name="Page-1" id="GBjy001EKA0uyKrKcLPK">
    <mxGraphModel>
      <root>
        <mxCell id="0" />
        <mxCell id="1" parent="0" />
      </root>
    </mxGraphModel>
  </diagram>
</mxfile>
